<?xml version="1.0" encoding="utf-8"?>
<!-- Generator: Adobe Illustrator 24.0.0, SVG Export Plug-In . SVG Version: 6.00 Build 0)  -->
<svg version="1.1" id="Layer_1" xmlns="http://www.w3.org/2000/svg" xmlns:xlink="http://www.w3.org/1999/xlink" x="0px" y="0px"
	 viewBox="0 0 342.98 54.71" style="enable-background:new 0 0 342.98 54.71;" xml:space="preserve">
<style type="text/css">
	.st0{opacity:1;fill:#000;}
</style>
<path class="st0" d="M42.51,34.45V22.31h-6.84c-14.38,0-21.56,3.92-21.56,11.72c0,2.86,1.05,5.04,3.19,6.56
	c2.11,1.54,4.94,2.3,8.5,2.3c3.31,0,6.48-0.74,9.5-2.2C38.3,39.23,40.71,36.99,42.51,34.45 M335.36,40.97L335.36,40.97
	c0.21-0.05,0.48-0.05,0.83-0.05c1.06-0.01,1.49,0.47,1.49,1.08c0,0.75-0.69,1.03-1.57,1.03h-0.72L335.36,40.97z M335.39,44.23
	L335.39,44.23h0.69c0.78,0,1.25,0.31,1.37,1.08c0.14,0.97,0.26,1.63,0.44,1.86h1.58c-0.11-0.23-0.26-0.65-0.41-1.79
	c-0.13-1.07-0.53-1.65-1.16-1.76v-0.05c0.77-0.21,1.38-0.81,1.36-1.7c0-0.73-0.22-1.22-0.64-1.53c-0.49-0.37-1.23-0.59-2.47-0.56
	c-1.11,0-1.74,0.12-2.33,0.21l0.08,7.22l1.51-0.03L335.39,44.23z M336.47,38.21L336.47,38.21c2.75,0,4.98,2.31,5,5.2
	c0.02,2.91-2.2,5.24-4.94,5.22c-2.73,0.01-4.95-2.24-4.97-5.15c-0.02-2.91,2.17-5.24,4.88-5.27H336.47z M336.46,36.91
	c-3.56,0.02-6.46,2.96-6.44,6.53c0.01,3.62,2.95,6.51,6.52,6.5c3.62-0.04,6.44-2.91,6.44-6.57c-0.03-3.57-2.9-6.47-6.49-6.46H336.46
	z M197.49,43.78c1.8,0,3.45-0.36,4.94-1.07c1.49-0.71,2.79-1.77,3.88-3.2c1.09-1.43,1.94-3.18,2.52-5.3
	c0.59-2.12,0.88-4.59,0.88-7.4c0-2.8-0.29-5.27-0.88-7.36c-0.59-2.11-1.43-3.88-2.52-5.32c-1.09-1.44-2.39-2.5-3.88-3.21
	c-1.49-0.71-3.14-1.08-4.94-1.08c-1.83,0-3.49,0.37-4.99,1.08c-1.48,0.71-2.77,1.77-3.85,3.21c-1.08,1.44-1.92,3.21-2.52,5.32
	c-0.6,2.09-0.91,4.56-0.91,7.36c0,2.81,0.31,5.28,0.91,7.4c0.6,2.12,1.45,3.88,2.52,5.3c1.08,1.43,2.37,2.48,3.85,3.2
	C194,43.42,195.66,43.78,197.49,43.78z M197.49,3.69c3.06,0,5.85,0.52,8.34,1.56c2.49,1.06,4.62,2.58,6.39,4.57
	c1.76,1.99,3.11,4.41,4.05,7.28c0.95,2.85,1.43,6.09,1.43,9.7c0,3.65-0.49,6.91-1.45,9.76c-0.97,2.86-2.32,5.28-4.08,7.28
	c-1.77,2-3.89,3.51-6.39,4.54c-2.49,1.04-5.26,1.55-8.3,1.55c-3,0-5.74-0.51-8.23-1.55c-2.48-1.03-4.59-2.53-6.36-4.49
	c-1.76-1.96-3.13-4.37-4.1-7.23c-0.98-2.86-1.46-6.14-1.46-9.85c0-3.64,0.48-6.9,1.43-9.75c0.97-2.86,2.32-5.28,4.08-7.28
	c1.77-1.99,3.89-3.51,6.39-4.54C191.73,4.2,194.49,3.69,197.49,3.69z M108.82,49.93h-7.72V20.75c0-3.76-0.52-6.43-1.54-8.01
	c-1.02-1.59-2.72-2.36-5.1-2.36c-3.76,0-7.42,2.38-11.01,7.16v32.4h-7.53V20.75c0-3.76-0.52-6.43-1.56-8.01
	c-1.05-1.59-2.74-2.36-5.13-2.36c-3.69,0-7.33,2.38-10.92,7.16v32.4h-7.62V3.73h7.62v5.59c3.68-4.55,7.7-5.63,12.09-5.63
	c5.55,0,9.33,2.17,11.36,6.54c5.38-9.28,27.04-11.64,27.04,10.16V49.93z M281.18,49.93h-7.72V20.75c0-3.76-0.52-6.43-1.54-8.01
	c-1.02-1.59-2.72-2.36-5.09-2.36c-3.76,0-7.42,2.38-11.01,7.16v32.4h-7.53V20.75c0-3.76-0.52-6.43-1.55-8.01
	c-1.05-1.59-2.74-2.36-5.13-2.36c-3.69,0-7.33,2.38-10.92,7.16v32.4h-7.62V3.73h7.62v5.59c3.68-4.55,7.7-5.63,12.09-5.63
	c5.55,0,9.33,2.17,11.36,6.54c5.38-9.28,27.05-11.64,27.05,10.16V49.93z M143.51,37.17v-9.55h-5.22c-10.98,0-16.46,3.09-16.46,9.22
	c0,2.25,0.81,3.96,2.44,5.16c1.61,1.21,3.78,1.81,6.48,1.81c2.53,0,4.95-0.58,7.25-1.73C140.3,40.94,142.14,39.17,143.51,37.17z
	 M143.51,44.41c-3.93,3.68-8.9,5.52-14.95,5.52c-2.02,0-3.91-0.3-5.66-0.9c-1.75-0.6-3.27-1.45-4.57-2.55
	c-1.29-1.12-2.31-2.45-3.06-4.01c-0.74-1.57-1.11-3.3-1.11-5.21c0-10.27,8.56-15.4,25.65-15.4h3.7c0-1.87-0.06-3.54-0.18-5.02
	c-0.12-1.48-0.49-2.72-1.11-3.71c-0.62-0.99-1.63-1.76-3.01-2.28c-1.39-0.52-3.35-0.79-5.91-0.79c-6.7,0-10.15,2.48-10.4,7.47h-7.49
	c0.5-9.06,6.56-13.85,18.32-13.85c2.68,0,5.09,0.24,7.23,0.71c2.13,0.47,3.95,1.33,5.42,2.6c1.47,1.26,2.61,2.98,3.43,5.13
	c0.81,2.14,1.23,4.87,1.23,8.15v29.65h-7.54V44.41z M318.67,22.55c-0.6-4.21-1.97-7.37-4.13-9.51c-2.14-2.12-4.8-3.2-7.96-3.2
	c-3.06,0-5.71,1.05-7.91,3.13c-2.22,2.09-3.6,5.27-4.17,9.57H318.67z M307.4,49.93c-3.09,0-5.94-0.51-8.53-1.55
	c-2.59-1.03-4.79-2.55-6.64-4.54c-1.83-2-3.25-4.41-4.28-7.28c-1.02-2.85-1.52-6.11-1.52-9.76c0-3.58,0.48-6.8,1.46-9.68
	c0.97-2.86,2.35-5.3,4.14-7.28c1.79-1.98,3.92-3.5,6.39-4.56c2.46-1.08,5.19-1.6,8.16-1.6c3.07,0,5.85,0.52,8.34,1.57
	c2.49,1.06,4.62,2.58,6.39,4.57c1.75,1.99,3.11,4.41,4.05,7.28c0.95,2.85,1.43,6.09,1.43,9.7v1.91H315v0.01h-0.75H294.4
	c0.15,2.56,0.59,4.78,1.31,6.66c0.72,1.9,1.65,3.45,2.8,4.68c1.14,1.23,2.46,2.17,3.99,2.78c1.52,0.62,3.16,0.93,4.89,0.93
	c1.26,0,2.51-0.18,3.76-0.54c1.25-0.35,2.39-0.89,3.39-1.58c1.02-0.7,1.83-1.53,2.46-2.52c0.42-0.67,0.71-1.39,0.86-2.19h7.89
	c-0.39,1.77-1,3.37-1.85,4.83c-1.05,1.79-2.4,3.28-4.03,4.46c-1.65,1.2-3.53,2.1-5.67,2.74C312.08,49.62,309.8,49.93,307.4,49.93z
	 M178.5,11.16c-0.87-0.42-2.36-0.63-3.59-0.63c-3.69,0-7.33,2.26-10.91,7.03v32.37h-7.62V3.73H164v5.58c4-4.95,8.27-6.14,14.51-5.48
	V11.16z M42.51,49.98l-4.73,4.73H0V14.64l5.14-5.14H5.7h5.83h3.98C15.83,3.15,20.35,0,29.13,0c3.35,0,5.92,0.34,7.73,1
	c1.82,0.66,3.13,1.64,3.95,2.9c0.82,1.26,1.3,2.84,1.46,4.72c0.16,1.88,0.24,4,0.24,6.38h-4.85C15.27,15,4.06,21.51,4.06,34.57
	c0,2.42,0.48,4.62,1.45,6.62c0.98,1.98,2.31,3.68,4.01,5.1c1.69,1.4,3.69,2.48,5.98,3.24c2.29,0.76,4.76,1.14,7.42,1.14
	c7.92,0,14.44-2.34,19.59-7.01V49.98z"/>
</svg>
