<svg xmlns="http://www.w3.org/2000/svg" viewBox="0 0 64 64">
  <rect width="64" height="64" rx="14" fill="#d63163" />
  <path
    d="M40.6 24.4c-2.2-2.9-5.4-4.4-9.5-4.4-3.5 0-6.4 1-8.8 3.1-2.4 2.1-3.6 4.8-3.6 8.2s1.2 6.2 3.6 8.3c2.4 2.1 5.3 3.2 8.8 3.2 4.4 0 7.8-1.7 10.2-5l-5.2-2.6c-1.2 1.3-2.8 2-4.9 2-1.7 0-3.1-.5-4.3-1.5-1.2-1-1.8-2.3-2-3.9h18.5c.1-.7.2-1.3.2-1.9 0-2.5-.8-4.9-2.3-7.1zM25 29.2c.3-1.6 1-2.8 2-3.6 1.1-.8 2.4-1.2 3.9-1.2 1.7 0 3 .4 4 1.2 1 .8 1.6 2 1.8 3.6H25z"
    fill="#fff"
  />
</svg>
